<svg width="65" height="34" viewBox="0 0 65 34" fill="none" xmlns="http://www.w3.org/2000/svg">
<path d="M7.60742 10.7812H10.0879L13.7402 21.2207L17.3926 10.7812H19.873L14.7363 25H12.7441L7.60742 10.7812ZM6.26953 10.7812H8.74023L9.18945 20.957V25H6.26953V10.7812ZM18.7402 10.7812H21.2207V25H18.291V20.957L18.7402 10.7812ZM23.75 23.6426C23.75 23.2259 23.8932 22.8776 24.1797 22.5977C24.4727 22.3177 24.86 22.1777 25.3418 22.1777C25.8236 22.1777 26.2077 22.3177 26.4941 22.5977C26.7871 22.8776 26.9336 23.2259 26.9336 23.6426C26.9336 24.0592 26.7871 24.4076 26.4941 24.6875C26.2077 24.9674 25.8236 25.1074 25.3418 25.1074C24.86 25.1074 24.4727 24.9674 24.1797 24.6875C23.8932 24.4076 23.75 24.0592 23.75 23.6426ZM41.2695 17.5586V18.2324C41.2695 19.3132 41.123 20.2832 40.8301 21.1426C40.5371 22.002 40.1237 22.7344 39.5898 23.3398C39.056 23.9388 38.418 24.3978 37.6758 24.7168C36.9401 25.0358 36.123 25.1953 35.2246 25.1953C34.3327 25.1953 33.5156 25.0358 32.7734 24.7168C32.0378 24.3978 31.3997 23.9388 30.8594 23.3398C30.319 22.7344 29.8991 22.002 29.5996 21.1426C29.3066 20.2832 29.1602 19.3132 29.1602 18.2324V17.5586C29.1602 16.4714 29.3066 15.5013 29.5996 14.6484C29.8926 13.7891 30.306 13.0566 30.8398 12.4512C31.3802 11.8457 32.0182 11.3835 32.7539 11.0645C33.4961 10.7454 34.3132 10.5859 35.2051 10.5859C36.1035 10.5859 36.9206 10.7454 37.6562 11.0645C38.3984 11.3835 39.0365 11.8457 39.5703 12.4512C40.1107 13.0566 40.5273 13.7891 40.8203 14.6484C41.1198 15.5013 41.2695 16.4714 41.2695 17.5586ZM38.3105 18.2324V17.5391C38.3105 16.7839 38.2422 16.1198 38.1055 15.5469C37.9688 14.974 37.7669 14.4922 37.5 14.1016C37.2331 13.7109 36.9076 13.418 36.5234 13.2227C36.1393 13.0208 35.6999 12.9199 35.2051 12.9199C34.7103 12.9199 34.2708 13.0208 33.8867 13.2227C33.5091 13.418 33.1868 13.7109 32.9199 14.1016C32.6595 14.4922 32.4609 14.974 32.3242 15.5469C32.1875 16.1198 32.1191 16.7839 32.1191 17.5391V18.2324C32.1191 18.9811 32.1875 19.6452 32.3242 20.2246C32.4609 20.7975 32.6628 21.2826 32.9297 21.6797C33.1966 22.0703 33.5221 22.3665 33.9062 22.5684C34.2904 22.7702 34.7298 22.8711 35.2246 22.8711C35.7194 22.8711 36.1589 22.7702 36.543 22.5684C36.9271 22.3665 37.2493 22.0703 37.5098 21.6797C37.7702 21.2826 37.9688 20.7975 38.1055 20.2246C38.2422 19.6452 38.3105 18.9811 38.3105 18.2324ZM42.207 23.6426C42.207 23.2259 42.3503 22.8776 42.6367 22.5977C42.9297 22.3177 43.3171 22.1777 43.7988 22.1777C44.2806 22.1777 44.6647 22.3177 44.9512 22.5977C45.2441 22.8776 45.3906 23.2259 45.3906 23.6426C45.3906 24.0592 45.2441 24.4076 44.9512 24.6875C44.6647 24.9674 44.2806 25.1074 43.7988 25.1074C43.3171 25.1074 42.9297 24.9674 42.6367 24.6875C42.3503 24.4076 42.207 24.0592 42.207 23.6426ZM53.6133 18.7598H49.9609L49.9414 16.748H53.0078C53.5482 16.748 53.9909 16.6797 54.3359 16.543C54.681 16.3997 54.9382 16.1947 55.1074 15.9277C55.2832 15.6543 55.3711 15.3223 55.3711 14.9316C55.3711 14.4889 55.2865 14.1309 55.1172 13.8574C54.9544 13.584 54.6973 13.3854 54.3457 13.2617C54.0007 13.138 53.5547 13.0762 53.0078 13.0762H50.9766V25H48.0469V10.7812H53.0078C53.8346 10.7812 54.5736 10.8594 55.2246 11.0156C55.8822 11.1719 56.4388 11.4095 56.8945 11.7285C57.3503 12.0475 57.6986 12.4512 57.9395 12.9395C58.1803 13.4212 58.3008 13.9941 58.3008 14.6582C58.3008 15.2441 58.1673 15.7845 57.9004 16.2793C57.64 16.7741 57.2266 17.1777 56.6602 17.4902C56.1003 17.8027 55.3678 17.9753 54.4629 18.0078L53.6133 18.7598ZM53.4863 25H49.1602L50.3027 22.7148H53.4863C54.0007 22.7148 54.4206 22.6335 54.7461 22.4707C55.0716 22.3014 55.3125 22.0736 55.4688 21.7871C55.625 21.5007 55.7031 21.1719 55.7031 20.8008C55.7031 20.3841 55.6315 20.0228 55.4883 19.7168C55.3516 19.4108 55.1302 19.1764 54.8242 19.0137C54.5182 18.8444 54.1146 18.7598 53.6133 18.7598H50.791L50.8105 16.748H54.3262L55 17.5391C55.8659 17.526 56.5625 17.679 57.0898 17.998C57.6237 18.3105 58.0111 18.7174 58.252 19.2188C58.4993 19.7201 58.623 20.2572 58.623 20.8301C58.623 21.7415 58.4245 22.5098 58.0273 23.1348C57.6302 23.7533 57.0475 24.2188 56.2793 24.5312C55.5176 24.8438 54.5866 25 53.4863 25Z" fill="white"/>
<line x1="7" y1="1.5" x2="64" y2="1.5" stroke="#FBA94C" stroke-width="3"/>
<line x1="7" y1="1.5" x2="64" y2="1.5" stroke="#FBA94C" stroke-width="3"/>
<line x1="7" y1="1.5" x2="64" y2="1.5" stroke="#FBA94C" stroke-width="3"/>
<line x1="7" y1="1.5" x2="64" y2="1.5" stroke="#FBA94C" stroke-width="3"/>
<line x1="1" y1="32.5" x2="58" y2="32.5" stroke="#FBA94C" stroke-width="3"/>
<line x1="1" y1="32.5" x2="58" y2="32.5" stroke="#FBA94C" stroke-width="3"/>
<line x1="1" y1="32.5" x2="58" y2="32.5" stroke="#FBA94C" stroke-width="3"/>
<line x1="1" y1="32.5" x2="58" y2="32.5" stroke="#FBA94C" stroke-width="3"/>
<line x1="2.5" y1="28.0004" x2="2.49222" y2="0.000430134" stroke="#FBA94C" stroke-width="3"/>
<line x1="2.5" y1="28.0004" x2="2.49222" y2="0.000430134" stroke="#FBA94C" stroke-width="3"/>
<line x1="2.5" y1="28.0004" x2="2.49222" y2="0.000430134" stroke="#FBA94C" stroke-width="3"/>
<line x1="2.5" y1="28.0004" x2="2.49222" y2="0.000430134" stroke="#FBA94C" stroke-width="3"/>
<line x1="62.5078" y1="34.0005" x2="62.4991" y2="6.00047" stroke="#FBA94C" stroke-width="3"/>
<line x1="62.5078" y1="34.0005" x2="62.4991" y2="6.00047" stroke="#FBA94C" stroke-width="3"/>
<line x1="62.5078" y1="34.0005" x2="62.4991" y2="6.00047" stroke="#FBA94C" stroke-width="3"/>
<line x1="62.5078" y1="34.0005" x2="62.4991" y2="6.00047" stroke="#FBA94C" stroke-width="3"/>
</svg>
